<?xml version="1.0" encoding="UTF-8" standalone="no"?>
<svg width="161px" height="132px" viewBox="0 0 161 132" version="1.1" xmlns="http://www.w3.org/2000/svg" xmlns:xlink="http://www.w3.org/1999/xlink">
    <defs>
        <linearGradient x1="0%" y1="50%" x2="100%" y2="50%" id="linearGradient-1">
            <stop stop-color="#2A3B8F" offset="0%"></stop>
            <stop stop-color="#29ABE2" offset="100%"></stop>
        </linearGradient>
        <linearGradient x1="0%" y1="50%" x2="100%" y2="50%" id="linearGradient-2">
            <stop stop-color="#2A3B8F" offset="0%"></stop>
            <stop stop-color="#29ABE2" offset="100%"></stop>
        </linearGradient>
        <linearGradient x1="100%" y1="50%" x2="0%" y2="50%" id="linearGradient-3">
            <stop stop-color="#B4D44E" offset="0%"></stop>
            <stop stop-color="#E7F716" offset="100%"></stop>
        </linearGradient>
        <linearGradient x1="100%" y1="50%" x2="0%" y2="50%" id="linearGradient-4">
            <stop stop-color="#B4D44E" offset="0%"></stop>
            <stop stop-color="#E7F716" offset="100%"></stop>
        </linearGradient>
    </defs>
    <g id="Page-1" stroke="none" stroke-width="1" fill="none" fill-rule="evenodd">
        <g id="Mark">
            <g id="Group">
                <polygon fill="#166DA5" points="160.6 65.9 143.2 95.2 118.8 65.5 143.2 36.6"></polygon>
                <polygon fill="#8FDB69" points="141.3 100.2 114.8 68.5 98.9 95.1 123.6 131.2"></polygon>
                <polygon fill="#166DA5" points="141 31.4 114.8 63.2 98.9 36.6 123.6 0.9"></polygon>
                <polygon fill="url(#linearGradient-1)" opacity="0.95" points="61.1 31.4 141 31.4 123.4 0.9 78.7 0.9"></polygon>
                <polyline fill="url(#linearGradient-2)" opacity="0.95" points="114.8 63.3 159 63.3 143.1 36.5 98.8 36.5"></polyline>
                <polygon fill="url(#linearGradient-3)" opacity="0.95" points="141.3 100.3 61 100.3 78.6 130.8 123.6 130.8"></polygon>
                <polygon fill="#010101" points="78.6 130.8 41 65.8 79.1 0.8 37.9 0.8 0.4 65.8 37.9 130.8"></polygon>
                <polyline fill="url(#linearGradient-4)" opacity="0.95" points="114.8 68.4 159 68.4 143.1 95.2 98.8 95.2"></polyline>
            </g>
        </g>
    </g>
</svg>